<svg width="52" height="22" viewBox="0 0 52 22" fill="none" xmlns="http://www.w3.org/2000/svg">
<path d="M13.8597 15.0822L8.58121 10.6123V22H0V0H8.58121V10.4755L13.8597 6.00553V15.0822Z" fill="white"/>
<path d="M32.1682 22H23.4513V13.4098L17.087 0.0304078V8.48376L8.61133 0H26.5429L32.1682 11.707V22Z" fill="white"/>
<path d="M32.7867 10.3842L27.9305 0H37.8389L32.7867 10.3842Z" fill="white"/>
<path d="M47.4757 0H38.7587V22H47.4757V0Z" fill="white"/>
<path d="M49.4212 1.7485V0.349747H48.9235V0.0608738H50.2657V0.349747H49.768V1.7485H49.4212Z" fill="white"/>
<path d="M50.3712 1.7485V0.0608738H50.884L51.1856 1.21637L51.4872 0.0608738H52V1.7485H51.6833V0.425767L51.3515 1.7485H51.0197L50.6879 0.425767V1.7485H50.3712Z" fill="white"/>
</svg>
